PathFileType	4	(X/Y/Z)	D:\datacapture\jf2lin\2017-09-14 IITTimeSync\timesync2.trc
DataRate	CameraRate	NumFrames	NumMarkers	Units	OrigDataRate	OrigDataStartFrame	OrigNumFrames
100.00	100.00	      93	3	mm	100.00	2155	      2873
Frame#	Time	M1			M2			M3			
		X1	Y1	Z1	X2	Y2	Z2	X3	Y3	Z3	

2155	21.540										
2156	21.550										
2157	21.560										
2158	21.570										
2159	21.580										
2160	21.590										
2161	21.600										
2162	21.610										
2163	21.620										
2164	21.630										
2165	21.640										
2166	21.650										
2167	21.660										
2168	21.670										
2169	21.680										
2170	21.690										
2171	21.700										
2172	21.710										
2173	21.720										
2174	21.730										
2175	21.740										
2176	21.750										
2177	21.760										
2178	21.770										
2179	21.780										
2180	21.790										
2181	21.800										
2182	21.810										
2183	21.820										
2184	21.830										
2185	21.840										
2186	21.850										
2187	21.860										
2188	21.870										
2189	21.880										
2190	21.890	64.58577	1474.48938	188.21248	113.52625	1476.76685	168.90703	251.85973	1486.85974	116.59875	
2191	21.900	64.63152	1472.50439	190.52608				252.63490	1488.93237	117.29941	
2192	21.910	66.57513	1473.59534	191.60519	115.38335	1476.99280	172.30617	252.34311	1487.41101	118.66007	
2193	21.920	67.36017	1471.91907	194.48454	116.39298	1476.91638	173.97723	252.06586	1485.62122	120.47199	
2194	21.930	68.24754	1472.38538	196.33778	116.12346	1477.20264	175.98518	252.71164	1485.73438	120.82356	
2195	21.940	69.18477	1473.81140	198.78780	117.54790	1477.83484	177.20915	252.91632	1485.75647	120.97918	
2196	21.950	69.86507	1473.67090	201.13770	118.06655	1475.28625	180.39455	253.11932	1484.49231	122.99211	
2197	21.960	70.93463	1471.38232	203.76152	119.26888	1475.02502	182.73282	254.11949	1485.15942	122.78241	
2198	21.970	73.23780	1472.24194	205.76015	120.19659	1474.24194	184.18568	254.83696	1483.59375	124.40185	
2199	21.980	74.51958	1472.64209	208.50661	121.78032	1476.00854	185.88342	256.16577	1483.16614	124.33553	
2200	21.990	75.13235	1471.48767	211.02133	122.59282	1475.26721	188.12967	257.86194	1482.99304	124.42369	
2201	22.000	77.15280	1474.26526	214.16602	124.16214	1474.50464	190.28818	257.63245	1480.59363	124.97917	
2202	22.010	78.69934	1471.59839	216.73228	124.64907	1473.14429	193.16641	257.86368	1478.79309	126.26244	
2203	22.020	80.23598	1472.63794	219.09941	125.69337	1472.45251	195.55019	257.91614	1476.22729	127.21307	
2204	22.030	81.76826	1474.25684	221.83228	128.53142	1475.06653	197.08850	259.77066	1476.10876	128.28120	
2205	22.040	83.46802	1474.57654	224.16759	130.51851	1474.54077	199.33243	260.23572	1474.48938	128.61089	
2206	22.050	86.05126	1475.61023	225.28838	130.84575	1473.19812	200.90338	261.27521	1474.11584	129.75684	
2207	22.060	87.24397	1474.37830	228.33604	131.86798	1473.12476	204.01868	262.64740	1473.39807	129.84103	
2208	22.070	89.09444	1473.17896	231.01175	134.42847	1473.13428	204.31758	263.71063	1476.04651	129.96675	
2209	22.080	90.87683	1472.25623	234.18947	135.58791	1472.32495	206.79201	262.96420	1470.00806	132.35837	
2210	22.090	92.91159	1470.95422	235.86224	136.74214	1469.89941	208.86971	263.53580	1469.76465	132.97501	
2211	22.100	94.03273	1470.09143	238.31984	138.04904	1469.46790	211.06042	266.16696	1470.13879	133.70183	
2212	22.110	96.11432	1468.76257	240.26549	140.48454	1467.80286	212.89560	266.17529	1468.47266	134.98178	
2213	22.120	97.95736	1467.31116	242.59222	142.00340	1467.57056	215.02235	267.38135	1467.32556	135.87239	
2214	22.130	99.41812	1466.14392	244.99048	142.72083	1465.56079	216.66673	269.78375	1469.34131	136.41693	
2215	22.140	100.96297	1464.99536	247.32803	144.86284	1464.95410	218.40990	269.31339	1465.35059	138.70972	
2216	22.150	102.94333	1464.16687	249.23074	146.18924	1463.78381	220.04088	271.55258	1464.87573	138.77950	
2217	22.160	104.72324	1462.86694	251.25340	148.24641	1462.74658	222.13200	272.31665	1463.13135	139.95674	
2218	22.170	106.55936	1461.36682	253.37299	149.77708	1461.65015	223.67372	274.01279	1461.90247	141.17465	
2219	22.180	107.73554	1460.53931	255.06631	151.81839	1460.05042	225.55464	275.53149	1462.22180	141.70979	
2220	22.190	110.42951	1459.67334	256.48831	153.49844	1459.53174	226.25209	276.34589	1460.29993	143.04906	
2221	22.200	112.25665	1458.80591	257.74396	154.42223	1458.62158	230.02310	277.65363	1457.29993	144.72899	
2222	22.210	114.34805	1457.22534	260.55441	156.58846	1456.43640	229.81525	278.76941	1457.31921	144.99481	
2223	22.220	116.11422	1455.99268	262.11203	158.65401	1455.44775	231.88974	280.00848	1454.92737	146.64008	
2224	22.230	117.95819	1454.81897	264.29623	159.76143	1454.12866	234.15070	280.33118	1453.95630	147.18733	
2225	22.240	119.43889	1453.66772	267.31949	160.55524	1452.19031	235.66765	281.42645	1451.60217	148.15388	
2226	22.250	121.11054	1451.65857	268.22888	163.03389	1451.15503	237.18130	283.04901	1450.79077	148.97928	
2227	22.260	122.62268	1449.50049	269.96167	164.56172	1449.36853	238.69142	283.35779	1449.06946	150.78380	
2228	22.270	123.56790	1448.08899	272.41162	165.76176	1447.54956	240.37268	285.03757	1447.94031	151.24899	
2229	22.280	125.10474	1445.82861	273.85352	165.86986	1445.20044	242.91212	285.66409	1446.48706	152.69234	
2230	22.290	126.52721	1444.81299	276.08011	167.83566	1443.56360	243.89323	285.83551	1442.95898	154.57346	
2231	22.300	128.80174	1442.21570	277.93445	169.45705	1442.33887	245.44592	286.59760	1440.90369	155.27528	
2232	22.310	129.59598	1440.56763	279.79105	170.63852	1439.85559	246.81245	287.61429	1440.39807	155.54695	
2233	22.320	130.94072	1438.64612	281.63779	171.26678	1437.67090	248.85939	287.84268	1436.37537	157.71010	
2234	22.330	132.37447	1436.36780	282.87033	172.67747	1435.83008	250.57175	287.08093	1432.63928	159.49655	
2235	22.340	133.57741	1434.22754	285.03830	173.98338	1433.70984	252.06488	290.19437	1434.21509	157.64893	
2236	22.350	134.92477	1431.49353	286.92130	175.24449	1431.24634	253.44765	287.94934	1428.17847	162.22316	
2237	22.360	135.67517	1429.20569	289.04645	176.18024	1428.82813	254.86955	291.04507	1427.13403	161.93750	
2238	22.370	136.77939	1427.12927	290.36316	176.75642	1425.88452	256.78326	292.47095	1426.93518	162.00246	
2239	22.380	138.44771	1424.36902	292.39685	178.15057	1423.13757	258.45004	292.75549	1423.89343	163.47308	
2240	22.390	139.21393	1421.29846	294.22171	178.99443	1420.79822	260.07571	292.79938	1420.47009	164.91435	
2241	22.400	140.40134	1417.91150	295.94705	179.82407	1417.64978	261.83145	294.87195	1419.18835	165.47398	
2242	22.410	141.05013	1414.71680	297.67438	180.87320	1414.59082	263.45612	294.10239	1414.25085	167.13980	
2243	22.420	141.74669	1411.85327	299.27438	181.38655	1410.87891	265.46799	294.45187	1412.26953	168.72495	
2244	22.430	143.30605	1407.73083	301.59793	182.58826	1407.77625	266.69760	294.98611	1409.90259	169.87494	
2245	22.440	144.53931	1404.19482	303.35590	183.40717	1403.69641	268.49203	295.84314	1406.41077	170.32785	
2246	22.450	145.85855	1400.21545	305.00012	184.67448	1400.72034	269.71390	296.03815	1404.18750	171.70706	
2247	22.460	147.62743	1395.22644	307.68387	184.82417	1397.81616	270.72244	296.24496	1400.18286	173.09488	
